<svg width="58" height="25" viewBox="0 0 58 25" fill="none" xmlns="http://www.w3.org/2000/svg">
<path d="M29.2707 0C43.8024 0 54.7013 3.87168 57.426 9.48167C60.6956 16.3085 49.3972 25.1422 28.7984 24.9842C8.19956 24.8262 -3.11707 15.9292 0.752021 9.48167C3.89452 4.23515 14.6844 0 29.2707 0Z" fill="#DB2031"/>
<path d="M29.1629 1.2168C41.2424 1.2168 52.3592 4.45637 54.2484 9.11819C56.4645 14.5859 45.2931 21.6858 28.8177 21.6858C12.3423 21.6858 1.29815 14.5385 3.75039 9.07078C5.82117 4.45637 17.0651 1.2168 29.1629 1.2168Z" fill="white"/>
<path d="M29.0538 3.27124C37.9908 3.27124 45.9106 5.72067 46.8552 9.07086C47.9269 12.8477 39.8981 16.2927 28.7994 16.2927C17.7008 16.2927 9.85363 12.8477 11.0707 9.07086C12.1605 5.72067 20.1894 3.27124 29.0538 3.27124Z" fill="#DB2031"/>
<path d="M42.1506 9.07068C42.6955 11.8046 36.7012 14.2066 28.8903 14.2066C21.0795 14.2066 15.176 11.8046 15.8481 9.07068C16.5202 6.3368 22.351 4.74072 29.0538 4.74072C35.7566 4.74072 41.642 6.57384 42.1506 9.07068Z" fill="white"/>
<path d="M19.6989 4.55103L15.9024 5.94168L9.16333 3.85571L12.9779 2.57568L19.6989 4.55103Z" fill="#DB2031"/>
<path d="M17.7009 14.1909L13.7047 12.5L4.71313 15.6131L8.67305 17.4621L17.7009 14.1909Z" fill="#DB2031"/>
<path d="M38.572 4.55103L42.314 5.94168L49.1257 3.85571L45.3475 2.57568L38.572 4.55103Z" fill="#DB2031"/>
<path d="M40.1707 14.1909L44.2396 12.5L53.1039 15.6131L49.0714 17.4621L40.1707 14.1909Z" fill="#DB2031"/>
</svg>
