<svg width="106" height="160" viewBox="0 0 106 160" fill="none" xmlns="http://www.w3.org/2000/svg">
<g filter="url(#filter0_d)">
<path d="M92.789 3H13C7.47715 3 3 7.47715 3 13V146.521C3 152.044 7.47715 156.521 13 156.521H92.789C98.3119 156.521 102.789 152.044 102.789 146.521V13C102.789 7.47715 98.3119 3 92.789 3Z" fill="white"/>
</g>
<path d="M23.243 42.22C24.1394 42.2365 24.9957 42.5946 25.6371 43.221C26.2784 43.8475 26.6565 44.6952 26.694 45.5909C26.6841 46.2134 26.5114 46.8225 26.193 47.3574C25.8746 47.8923 25.4215 48.3345 24.879 48.64C25.5055 48.3808 26.1761 48.245 26.8541 48.24C27.3201 48.2202 27.7853 48.2947 28.2218 48.4591C28.6583 48.6235 29.0571 48.8743 29.3943 49.1966C29.7316 49.5188 30.0002 49.9059 30.1842 50.3345C30.3682 50.7631 30.4637 51.2245 30.465 51.6909C30.4617 52.1532 30.3642 52.6098 30.1784 53.0331C29.9926 53.4563 29.7225 53.8372 29.3846 54.1525C29.0466 54.4678 28.6479 54.711 28.2128 54.867C27.7777 55.023 27.3154 55.0887 26.8541 55.06C25.8712 54.9957 24.9133 54.723 24.0441 54.2599C24.0441 54.2599 23.804 55.8599 25.644 58.2729H20.8301C22.6751 55.8649 22.4301 54.2599 22.4301 54.2599C21.5608 54.723 20.6029 54.9957 19.6201 55.06C19.1587 55.0887 18.6964 55.023 18.2613 54.867C17.8262 54.711 17.4275 54.4678 17.0895 54.1525C16.7516 53.8372 16.4814 53.4563 16.2957 53.0331C16.1099 52.6098 16.0124 52.1532 16.009 51.6909C16.0104 51.2245 16.1059 50.7631 16.2899 50.3345C16.4738 49.9059 16.7425 49.5188 17.0797 49.1966C17.4169 48.8743 17.8157 48.6235 18.2523 48.4591C18.6888 48.2947 19.154 48.2202 19.6201 48.24C20.298 48.245 20.9686 48.3808 21.595 48.64C21.0527 48.3346 20.5999 47.8924 20.2817 47.3574C19.9636 46.8224 19.7913 46.2133 19.782 45.5909C19.8195 44.6934 20.1989 43.8442 20.8424 43.2174C21.4859 42.5906 22.3448 42.2337 23.243 42.22V42.22Z" fill="#333333"/>
<path d="M52.8951 54.371C58.7341 54.371 63.811 59.45 63.811 65.035C63.7796 67.0039 63.2335 68.9302 62.2271 70.6228C61.2206 72.3153 59.7889 73.715 58.074 74.683C60.0543 73.8608 62.175 73.4299 64.319 73.414C70.667 73.414 75.7441 77.983 75.7441 84.331C75.7441 90.679 70.667 94.995 64.319 94.995C61.2106 94.7896 58.1817 93.924 55.4341 92.456C55.4341 92.456 54.672 97.533 60.511 105.156H45.2781C51.1171 97.538 50.355 92.456 50.355 92.456C47.6074 93.924 44.5785 94.7896 41.47 94.995C35.122 94.995 30.0441 90.678 30.0441 84.331C30.0441 77.984 35.123 73.414 41.47 73.414C43.6141 73.4299 45.7348 73.8608 47.715 74.683C46.0001 73.715 44.5682 72.3153 43.5615 70.6228C42.5547 68.9304 42.0082 67.004 41.9761 65.035C41.9771 59.45 47.0561 54.371 52.8951 54.371Z" fill="#333333"/>
<path d="M19.853 12.4629V32.7629H16.083V15.6239H11.791V12.4629H19.853ZM32.3479 33.0529C30.7239 33.0529 29.2739 32.6469 27.9979 31.8349C26.7219 31.0036 25.7165 29.8049 24.9819 28.2389C24.2472 26.6536 23.8799 24.7783 23.8799 22.6129C23.8799 20.4476 24.2472 18.5819 24.9819 17.0159C25.7165 15.4306 26.7219 14.2319 27.9979 13.4199C29.2739 12.5886 30.7239 12.1729 32.3479 12.1729C33.9719 12.1729 35.4219 12.5886 36.6979 13.4199C37.9932 14.2319 39.0082 15.4306 39.7429 17.0159C40.4775 18.5819 40.8449 20.4476 40.8449 22.6129C40.8449 24.7783 40.4775 26.6536 39.7429 28.2389C39.0082 29.8049 37.9932 31.0036 36.6979 31.8349C35.4219 32.6469 33.9719 33.0529 32.3479 33.0529ZM32.3479 29.7759C33.7979 29.7759 34.9385 29.1766 35.7699 27.9779C36.6205 26.7793 37.0459 24.9909 37.0459 22.6129C37.0459 20.2349 36.6205 18.4466 35.7699 17.2479C34.9385 16.0493 33.7979 15.4499 32.3479 15.4499C30.9172 15.4499 29.7765 16.0493 28.9259 17.2479C28.0945 18.4466 27.6789 20.2349 27.6789 22.6129C27.6789 24.9909 28.0945 26.7793 28.9259 27.9779C29.7765 29.1766 30.9172 29.7759 32.3479 29.7759Z" fill="#333333"/>
<path d="M79.612 116.398C79.6221 115.776 79.795 115.167 80.1134 114.632C80.4318 114.097 80.8847 113.655 81.427 113.349C80.8007 113.609 80.13 113.745 79.452 113.749C78.986 113.769 78.5209 113.694 78.0844 113.53C77.6479 113.366 77.2492 113.115 76.912 112.792C76.5749 112.47 76.3064 112.083 76.1225 111.654C75.9386 111.226 75.8432 110.764 75.842 110.298C75.8452 109.836 75.9426 109.379 76.1283 108.956C76.314 108.533 76.5839 108.152 76.9218 107.836C77.2597 107.521 77.6583 107.278 78.0934 107.121C78.5284 106.965 78.9907 106.899 79.452 106.928C80.4345 106.993 81.392 107.265 82.261 107.728C82.261 107.728 82.501 106.128 80.655 103.716H85.467C83.621 106.123 83.867 107.728 83.867 107.728C84.736 107.265 85.6935 106.992 86.676 106.928C87.1374 106.899 87.5996 106.965 88.0347 107.121C88.4697 107.278 88.8684 107.521 89.2062 107.836C89.5441 108.152 89.8141 108.533 89.9998 108.956C90.1854 109.379 90.2828 109.836 90.286 110.298C90.2848 110.764 90.1894 111.226 90.0056 111.654C89.8217 112.083 89.5531 112.47 89.216 112.792C88.8789 113.115 88.4801 113.366 88.0436 113.53C87.6072 113.694 87.142 113.769 86.676 113.749C85.998 113.745 85.3274 113.609 84.701 113.349C85.2433 113.655 85.696 114.097 86.0141 114.632C86.3322 115.167 86.5046 115.776 86.514 116.398C86.4924 117.299 86.1194 118.155 85.4747 118.784C84.8301 119.414 83.9649 119.766 83.064 119.766C82.1631 119.766 81.298 119.414 80.6534 118.784C80.0087 118.155 79.6357 117.299 79.614 116.398H79.612Z" fill="#333333"/>
<path d="M85.934 147.24V126.94H89.704V144.079H93.996V147.24H85.934ZM73.4391 126.65C75.0631 126.65 76.5131 127.056 77.7891 127.868C79.0651 128.699 80.0704 129.898 80.8051 131.464C81.5398 133.049 81.9071 134.925 81.9071 137.09C81.9071 139.255 81.5398 141.121 80.8051 142.687C80.0704 144.272 79.0651 145.471 77.7891 146.283C76.5131 147.114 75.0631 147.53 73.4391 147.53C71.8151 147.53 70.3651 147.114 69.0891 146.283C67.7938 145.471 66.7788 144.272 66.0441 142.687C65.3094 141.121 64.9421 139.255 64.9421 137.09C64.9421 134.925 65.3094 133.049 66.0441 131.464C66.7788 129.898 67.7938 128.699 69.0891 127.868C70.3651 127.056 71.8151 126.65 73.4391 126.65ZM73.4391 129.927C71.9891 129.927 70.8484 130.526 70.0171 131.725C69.1664 132.924 68.7411 134.712 68.7411 137.09C68.7411 139.468 69.1664 141.256 70.0171 142.455C70.8484 143.654 71.9891 144.253 73.4391 144.253C74.8698 144.253 76.0104 143.654 76.8611 142.455C77.6924 141.256 78.1081 139.468 78.1081 137.09C78.1081 134.712 77.6924 132.924 76.8611 131.725C76.0104 130.526 74.8698 129.927 73.4391 129.927Z" fill="#333333"/>
<defs>
<filter id="filter0_d" x="1" y="1" width="103.789" height="157.521" filterUnits="userSpaceOnUse" color-interpolation-filters="sRGB">
<feFlood flood-opacity="0" result="BackgroundImageFix"/>
<feColorMatrix in="SourceAlpha" type="matrix" values="0 0 0 0 0 0 0 0 0 0 0 0 0 0 0 0 0 0 127 0" result="hardAlpha"/>
<feOffset/>
<feGaussianBlur stdDeviation="1"/>
<feColorMatrix type="matrix" values="0 0 0 0 0 0 0 0 0 0 0 0 0 0 0 0 0 0 0.102 0"/>
<feBlend mode="normal" in2="BackgroundImageFix" result="effect1_dropShadow"/>
<feBlend mode="normal" in="SourceGraphic" in2="effect1_dropShadow" result="shape"/>
</filter>
</defs>
</svg>
