<svg xmlns="http://www.w3.org/2000/svg" xmlns:xlink="http://www.w3.org/1999/xlink" width="105.789" height="159.521" viewBox="0 0 105.789 159.521"><defs><filter id="a" x="0" y="0" width="105.789" height="159.521" filterUnits="userSpaceOnUse"><feOffset input="SourceAlpha"/><feGaussianBlur stdDeviation="1" result="b"/><feFlood flood-opacity="0.102"/><feComposite operator="in" in2="b"/><feComposite in="SourceGraphic"/></filter></defs><g transform="translate(3 3)"><g transform="matrix(1, 0, 0, 1, -3, -3)" filter="url(#a)"><rect width="99.789" height="153.521" rx="10" transform="translate(3 3)" fill="#fff"/></g><path d="M734.214,486.114a3.519,3.519,0,0,1,3.451,3.371,3.564,3.564,0,0,1-1.815,3.049,5.268,5.268,0,0,1,1.975-.4,3.464,3.464,0,0,1,3.611,3.451,3.4,3.4,0,0,1-3.611,3.369,6.939,6.939,0,0,1-2.81-.8s-.24,1.6,1.6,4.013h-4.814c1.845-2.408,1.6-4.013,1.6-4.013a6.94,6.94,0,0,1-2.81.8,3.4,3.4,0,0,1-3.611-3.369,3.464,3.464,0,0,1,3.611-3.451,5.269,5.269,0,0,1,1.975.4,3.56,3.56,0,0,1-1.813-3.049A3.518,3.518,0,0,1,734.214,486.114Z" transform="translate(-713.971 -446.894)" fill="#333"/><path d="M763.689,500.835c5.839,0,10.916,5.079,10.916,10.664a11.286,11.286,0,0,1-5.737,9.648,16.608,16.608,0,0,1,6.245-1.269c6.348,0,11.425,4.569,11.425,10.917s-5.077,10.664-11.425,10.664a21.92,21.92,0,0,1-8.885-2.539s-.762,5.077,5.077,12.7H756.072c5.839-7.618,5.077-12.7,5.077-12.7a21.921,21.921,0,0,1-8.885,2.539c-6.348,0-11.426-4.317-11.426-10.664s5.079-10.917,11.426-10.917a16.608,16.608,0,0,1,6.245,1.269,11.29,11.29,0,0,1-5.739-9.648C752.771,505.914,757.85,500.835,763.689,500.835Z" transform="translate(-713.794 -449.464)" fill="#333"/><text transform="translate(19.186 29.763)" fill="#333" font-size="28" font-family="Montserrat-SemiBold, Montserrat" font-weight="600"><tspan x="-10.206" y="0">K</tspan></text><path d="M777.845,549.924a3.566,3.566,0,0,1,1.815-3.049,5.247,5.247,0,0,1-1.975.4,3.463,3.463,0,0,1-3.61-3.451,3.4,3.4,0,0,1,3.61-3.37,6.945,6.945,0,0,1,2.809.8s.24-1.6-1.606-4.012H783.7c-1.846,2.407-1.6,4.012-1.6,4.012a6.939,6.939,0,0,1,2.809-.8,3.4,3.4,0,0,1,3.61,3.37,3.463,3.463,0,0,1-3.61,3.451,5.247,5.247,0,0,1-1.975-.4,3.562,3.562,0,0,1,1.813,3.049,3.451,3.451,0,0,1-6.9,0Z" transform="translate(-701.233 -436.526)" fill="#333"/><text transform="translate(80.6 123.94) rotate(180)" fill="#333" font-size="28" font-family="Montserrat-SemiBold, Montserrat" font-weight="600"><tspan x="-10.206" y="0">K</tspan></text></g></svg>