<svg width="106" height="160" viewBox="0 0 106 160" fill="none" xmlns="http://www.w3.org/2000/svg">
<g filter="url(#filter0_d)">
<path d="M92.789 3H13C7.47715 3 3 7.47715 3 13V146.521C3 152.044 7.47715 156.521 13 156.521H92.789C98.3119 156.521 102.789 152.044 102.789 146.521V13C102.789 7.47715 98.3119 3 92.789 3Z" fill="white"/>
</g>
<path d="M19.499 11.901V32.201H15.729V15.062H11.437V11.901H19.499ZM31.9939 32.491C30.3699 32.491 28.9199 32.085 27.6439 31.273C26.3679 30.4417 25.3625 29.243 24.6279 27.677C23.8932 26.0917 23.5259 24.2164 23.5259 22.051C23.5259 19.8857 23.8932 18.02 24.6279 16.454C25.3625 14.8687 26.3679 13.67 27.6439 12.858C28.9199 12.0267 30.3699 11.611 31.9939 11.611C33.6179 11.611 35.0679 12.0267 36.3439 12.858C37.6392 13.67 38.6542 14.8687 39.3889 16.454C40.1235 18.02 40.4909 19.8857 40.4909 22.051C40.4909 24.2164 40.1235 26.0917 39.3889 27.677C38.6542 29.243 37.6392 30.4417 36.3439 31.273C35.0679 32.085 33.6179 32.491 31.9939 32.491ZM31.9939 29.214C33.4439 29.214 34.5845 28.6147 35.4159 27.416C36.2665 26.2174 36.6919 24.429 36.6919 22.051C36.6919 19.673 36.2665 17.8847 35.4159 16.686C34.5845 15.4874 33.4439 14.888 31.9939 14.888C30.5632 14.888 29.4225 15.4874 28.5719 16.686C27.7405 17.8847 27.3249 19.673 27.3249 22.051C27.3249 24.429 27.7405 26.2174 28.5719 27.416C29.4225 28.6147 30.5632 29.214 31.9939 29.214Z" fill="#333333"/>
<path d="M85.918 147.804V127.504H89.688V144.643H93.98V147.804H85.918ZM73.4231 127.214C75.0471 127.214 76.4971 127.62 77.7731 128.432C79.0491 129.263 80.0544 130.462 80.7891 132.028C81.5238 133.613 81.8911 135.489 81.8911 137.654C81.8911 139.819 81.5238 141.685 80.7891 143.251C80.0544 144.836 79.0491 146.035 77.7731 146.847C76.4971 147.678 75.0471 148.094 73.4231 148.094C71.7991 148.094 70.3491 147.678 69.0731 146.847C67.7778 146.035 66.7628 144.836 66.0281 143.251C65.2934 141.685 64.9261 139.819 64.9261 137.654C64.9261 135.489 65.2934 133.613 66.0281 132.028C66.7628 130.462 67.7778 129.263 69.0731 128.432C70.3491 127.62 71.7991 127.214 73.4231 127.214ZM73.4231 130.491C71.9731 130.491 70.8324 131.09 70.0011 132.289C69.1504 133.488 68.7251 135.276 68.7251 137.654C68.7251 140.032 69.1504 141.82 70.0011 143.019C70.8324 144.218 71.9731 144.817 73.4231 144.817C74.8538 144.817 75.9944 144.218 76.8451 143.019C77.6764 141.82 78.0921 140.032 78.0921 137.654C78.0921 135.276 77.6764 133.488 76.8451 132.289C75.9944 131.09 74.8538 130.491 73.4231 130.491Z" fill="#333333"/>
<path d="M52.707 52.881C44.643 66.32 31.207 71.696 31.207 85.136C31.207 90.512 36.583 95.888 41.959 95.888C44.647 95.888 47.335 95.888 50.023 93.2C50.023 93.2 50.883 98.576 44.647 106.639H60.774C55.398 98.575 55.398 93.2 55.398 93.2C58.086 95.888 60.774 95.888 63.462 95.888C68.838 95.888 74.214 90.512 74.214 85.136C74.21 71.696 60.771 66.32 52.707 52.881Z" fill="#333333"/>
<path d="M22.958 43.022C20.08 47.822 15.282 49.739 15.282 54.536C15.3496 55.5316 15.7756 56.469 16.4813 57.1747C17.1869 57.8803 18.1243 58.3064 19.12 58.374C19.6411 58.4385 20.17 58.3858 20.6681 58.2197C21.1662 58.0536 21.6209 57.7783 21.999 57.414C21.999 57.414 22.306 59.333 20.08 62.214H25.837C24.7744 60.8173 24.1111 59.1582 23.918 57.414C24.2961 57.7783 24.7508 58.0536 25.2489 58.2197C25.747 58.3858 26.2759 58.4385 26.797 58.374C27.7926 58.3064 28.73 57.8803 29.4357 57.1747C30.1413 56.469 30.5674 55.5316 30.635 54.536C30.634 49.739 25.837 47.819 22.958 43.022Z" fill="#333333"/>
<path d="M84.109 121.333C86.988 116.533 91.785 114.616 91.785 109.819C91.7174 108.823 91.2913 107.886 90.5857 107.18C89.8801 106.475 88.9426 106.049 87.947 105.981C87.426 105.916 86.8971 105.969 86.399 106.135C85.9009 106.301 85.4462 106.576 85.068 106.94C85.068 106.94 84.761 105.021 86.987 102.14H81.23C82.2926 103.537 82.9558 105.196 83.149 106.94C82.7708 106.576 82.3161 106.301 81.818 106.135C81.3199 105.969 80.791 105.916 80.27 105.981C79.2744 106.049 78.3369 106.475 77.6313 107.18C76.9256 107.886 76.4996 108.823 76.432 109.819C76.433 114.612 81.231 116.533 84.109 121.333Z" fill="#333333"/>
<defs>
<filter id="filter0_d" x="1" y="1" width="103.789" height="157.521" filterUnits="userSpaceOnUse" color-interpolation-filters="sRGB">
<feFlood flood-opacity="0" result="BackgroundImageFix"/>
<feColorMatrix in="SourceAlpha" type="matrix" values="0 0 0 0 0 0 0 0 0 0 0 0 0 0 0 0 0 0 127 0" result="hardAlpha"/>
<feOffset/>
<feGaussianBlur stdDeviation="1"/>
<feColorMatrix type="matrix" values="0 0 0 0 0 0 0 0 0 0 0 0 0 0 0 0 0 0 0.102 0"/>
<feBlend mode="normal" in2="BackgroundImageFix" result="effect1_dropShadow"/>
<feBlend mode="normal" in="SourceGraphic" in2="effect1_dropShadow" result="shape"/>
</filter>
</defs>
</svg>
