<svg xmlns="http://www.w3.org/2000/svg" xmlns:xlink="http://www.w3.org/1999/xlink" width="105.789" height="159.521" viewBox="0 0 105.789 159.521"><defs><filter id="a" x="0" y="0" width="105.789" height="159.521" filterUnits="userSpaceOnUse"><feOffset input="SourceAlpha"/><feGaussianBlur stdDeviation="1" result="b"/><feFlood flood-opacity="0.102"/><feComposite operator="in" in2="b"/><feComposite in="SourceGraphic"/></filter></defs><g transform="translate(3 3)"><g transform="matrix(1, 0, 0, 1, -3, -3)" filter="url(#a)"><rect width="99.789" height="153.521" rx="10" transform="translate(3 3)" fill="#fff"/></g><text transform="translate(19.368 30.201)" fill="#333" font-size="29" font-family="Montserrat-SemiBold, Montserrat" font-weight="600"><tspan x="-8.468" y="0">5</tspan></text><text transform="translate(80.049 123.504) rotate(180)" fill="#333" font-size="29" font-family="Montserrat-SemiBold, Montserrat" font-weight="600"><tspan x="-8.468" y="0">5</tspan></text><path d="M290.759,433.327c-8.064,13.439-21.5,18.815-21.5,32.255,0,5.376,5.376,10.752,10.752,10.752,2.688,0,5.376,0,8.064-2.688,0,0,.86,5.376-5.376,13.439h16.127c-5.376-8.064-5.376-13.439-5.376-13.439,2.688,2.688,5.376,2.688,8.064,2.688,5.376,0,10.752-5.376,10.752-10.752C312.262,452.142,298.823,446.766,290.759,433.327Z" transform="translate(-241.052 -383.446)" fill="#333"/><g transform="translate(12.282 40.022)"><path d="M264.807,421.369c-2.878,4.8-7.676,6.717-7.676,11.514a4.127,4.127,0,0,0,3.838,3.838,3.525,3.525,0,0,0,2.879-.96s.307,1.919-1.919,4.8h5.757a9.689,9.689,0,0,1-1.919-4.8,3.525,3.525,0,0,0,2.879.96,4.127,4.127,0,0,0,3.838-3.838C272.483,428.086,267.686,426.166,264.807,421.369Z" transform="translate(-257.131 -421.369)" fill="#333"/><path d="M303.057,482.1c2.879-4.8,7.676-6.717,7.676-11.514a4.127,4.127,0,0,0-3.838-3.838,3.525,3.525,0,0,0-2.879.959s-.307-1.919,1.919-4.8h-5.757a9.689,9.689,0,0,1,1.919,4.8,3.525,3.525,0,0,0-2.879-.959,4.127,4.127,0,0,0-3.838,3.838C295.381,475.379,300.179,477.3,303.057,482.1Z" transform="translate(-234.23 -403.789)" fill="#333"/></g></g></svg>