<svg width="106" height="160" viewBox="0 0 106 160" fill="none" xmlns="http://www.w3.org/2000/svg">
<g filter="url(#filter0_d)">
<path d="M93 2.995H13C7.47715 2.995 3 7.47215 3 12.995V146.995C3 152.518 7.47715 156.995 13 156.995H93C98.5229 156.995 103 152.518 103 146.995V12.995C103 7.47215 98.5229 2.995 93 2.995Z" fill="white"/>
</g>
<path d="M20.294 12.7V33H16.524V15.861H12.232V12.7H20.294ZM32.7889 33.29C31.1649 33.29 29.7149 32.884 28.4389 32.072C27.1629 31.2407 26.1576 30.042 25.4229 28.476C24.6883 26.8907 24.3209 25.0153 24.3209 22.85C24.3209 20.6847 24.6883 18.819 25.4229 17.253C26.1576 15.6677 27.1629 14.469 28.4389 13.657C29.7149 12.8257 31.1649 12.41 32.7889 12.41C34.4129 12.41 35.8629 12.8257 37.1389 13.657C38.4343 14.469 39.4493 15.6677 40.1839 17.253C40.9186 18.819 41.2859 20.6847 41.2859 22.85C41.2859 25.0153 40.9186 26.8907 40.1839 28.476C39.4493 30.042 38.4343 31.2407 37.1389 32.072C35.8629 32.884 34.4129 33.29 32.7889 33.29ZM32.7889 30.013C34.2389 30.013 35.3796 29.4137 36.2109 28.215C37.0616 27.0163 37.4869 25.228 37.4869 22.85C37.4869 20.472 37.0616 18.6837 36.2109 17.485C35.3796 16.2863 34.2389 15.687 32.7889 15.687C31.3583 15.687 30.2176 16.2863 29.3669 17.485C28.5356 18.6837 28.1199 20.472 28.1199 22.85C28.1199 25.228 28.5356 27.0163 29.3669 28.215C30.2176 29.4137 31.3583 30.013 32.7889 30.013Z" fill="#DB2031"/>
<path d="M85.626 147.318V127.018H89.396V144.157H93.688V147.318H85.626ZM73.1311 126.728C74.7551 126.728 76.2051 127.134 77.4811 127.946C78.7571 128.777 79.7625 129.976 80.4971 131.542C81.2318 133.127 81.5991 135.003 81.5991 137.168C81.5991 139.333 81.2318 141.199 80.4971 142.765C79.7625 144.35 78.7571 145.549 77.4811 146.361C76.2051 147.192 74.7551 147.608 73.1311 147.608C71.5071 147.608 70.0571 147.192 68.7811 146.361C67.4858 145.549 66.4708 144.35 65.7361 142.765C65.0015 141.199 64.6341 139.333 64.6341 137.168C64.6341 135.003 65.0015 133.127 65.7361 131.542C66.4708 129.976 67.4858 128.777 68.7811 127.946C70.0571 127.134 71.5071 126.728 73.1311 126.728ZM73.1311 130.005C71.6811 130.005 70.5405 130.604 69.7091 131.803C68.8585 133.002 68.4331 134.79 68.4331 137.168C68.4331 139.546 68.8585 141.334 69.7091 142.533C70.5405 143.732 71.6811 144.331 73.1311 144.331C74.5618 144.331 75.7025 143.732 76.5531 142.533C77.3845 141.334 77.8001 139.546 77.8001 137.168C77.8001 134.79 77.3845 133.002 76.5531 131.803C75.7025 130.604 74.5618 130.005 73.1311 130.005Z" fill="#DB2031"/>
<path d="M53.001 103.775L49.2011 100.316C35.7011 88.0789 26.796 79.9829 26.796 70.1039C26.7751 68.2054 27.1337 66.3218 27.8507 64.5638C28.5676 62.8058 29.6284 61.2086 30.971 59.8662C32.3136 58.5237 33.9108 57.4629 35.6689 56.7461C37.427 56.0293 39.3106 55.6709 41.2091 55.6919C43.4491 55.7103 45.6595 56.2059 47.6928 57.1459C49.7262 58.0858 51.5358 59.4485 53.001 61.1429C54.466 59.4484 56.2755 58.0858 58.3087 57.1458C60.3419 56.2058 62.5522 55.7102 64.7921 55.6919C66.6906 55.6709 68.5741 56.0293 70.3322 56.7461C72.0903 57.4629 73.6875 58.5237 75.0301 59.8662C76.3727 61.2086 77.4335 62.8058 78.1505 64.5638C78.8674 66.3218 79.2259 68.2054 79.205 70.1039C79.205 79.9829 70.2961 88.0789 56.8001 100.316L53.001 103.775Z" fill="#DB2031"/>
<path d="M23.537 55.693L22.313 54.578C17.964 50.633 15.0911 48.023 15.0911 44.84C15.0848 44.2281 15.2006 43.6212 15.4318 43.0547C15.6629 42.4882 16.0049 41.9735 16.4374 41.5407C16.87 41.108 17.3845 40.7659 17.9509 40.5345C18.5173 40.303 19.1242 40.187 19.736 40.193C20.2043 40.7437 20.7867 41.186 21.4428 41.4894C22.0989 41.7927 22.8132 41.9498 23.5361 41.9498C24.2589 41.9498 24.9731 41.7927 25.6293 41.4894C26.2854 41.186 26.8678 40.7437 27.3361 40.193C27.9479 40.187 28.5547 40.303 29.1212 40.5345C29.6876 40.7659 30.2021 41.108 30.6347 41.5407C31.0673 41.9735 31.4091 42.4882 31.6403 43.0547C31.8715 43.6212 31.9873 44.2281 31.981 44.84C31.981 48.023 29.111 50.633 24.761 54.578L23.537 55.693Z" fill="#DB2031"/>
<path d="M82.261 103.959L83.486 105.074C87.835 109.019 90.706 111.629 90.706 114.812C90.7123 115.424 90.5965 116.031 90.3653 116.597C90.1341 117.164 89.7922 117.678 89.3597 118.111C88.9271 118.544 88.4125 118.886 87.8461 119.117C87.2797 119.349 86.6729 119.465 86.061 119.459C85.5928 118.908 85.0104 118.466 84.3542 118.163C83.6981 117.859 82.9839 117.702 82.261 117.702C81.5382 117.702 80.8239 117.859 80.1678 118.163C79.5116 118.466 78.9293 118.908 78.461 119.459C77.8492 119.465 77.2423 119.349 76.6759 119.117C76.1095 118.886 75.595 118.544 75.1624 118.111C74.7299 117.678 74.3879 117.164 74.1567 116.597C73.9256 116.031 73.8098 115.424 73.816 114.812C73.816 111.629 76.686 109.019 81.036 105.074L82.261 103.959Z" fill="#DB2031"/>
<defs>
<filter id="filter0_d" x="1" y="0.994995" width="104" height="158" filterUnits="userSpaceOnUse" color-interpolation-filters="sRGB">
<feFlood flood-opacity="0" result="BackgroundImageFix"/>
<feColorMatrix in="SourceAlpha" type="matrix" values="0 0 0 0 0 0 0 0 0 0 0 0 0 0 0 0 0 0 127 0" result="hardAlpha"/>
<feOffset/>
<feGaussianBlur stdDeviation="1"/>
<feColorMatrix type="matrix" values="0 0 0 0 0 0 0 0 0 0 0 0 0 0 0 0 0 0 0.102 0"/>
<feBlend mode="normal" in2="BackgroundImageFix" result="effect1_dropShadow"/>
<feBlend mode="normal" in="SourceGraphic" in2="effect1_dropShadow" result="shape"/>
</filter>
</defs>
</svg>
