<svg xmlns="http://www.w3.org/2000/svg" xmlns:xlink="http://www.w3.org/1999/xlink" width="106" height="160" viewBox="0 0 106 160"><defs><filter id="a" x="0" y="0" width="106" height="160" filterUnits="userSpaceOnUse"><feOffset input="SourceAlpha"/><feGaussianBlur stdDeviation="1" result="b"/><feFlood flood-opacity="0.102"/><feComposite operator="in" in2="b"/><feComposite in="SourceGraphic"/></filter></defs><g transform="translate(2.986 3.345)"><g transform="matrix(1, 0, 0, 1, -2.99, -3.35)" filter="url(#a)"><rect width="100" height="154" rx="10" transform="translate(3 3)" fill="#fff"/></g><text transform="translate(20.038 30.53)" fill="#db2031" font-size="29" font-family="Montserrat-SemiBold, Montserrat" font-weight="600"><tspan x="-9.454" y="0">8</tspan></text><text transform="translate(79.757 122.673) rotate(180)" fill="#db2031" font-size="29" font-family="Montserrat-SemiBold, Montserrat" font-weight="600"><tspan x="-9.454" y="0">8</tspan></text><g transform="translate(12.092 36.849)"><path d="M804.128,548.917l-3.8-3.459c-13.5-12.237-22.405-20.333-22.405-30.212a14.256,14.256,0,0,1,14.413-14.412,15.76,15.76,0,0,1,11.792,5.451,15.757,15.757,0,0,1,11.791-5.451,14.256,14.256,0,0,1,14.413,14.412c0,9.879-8.909,17.975-22.405,30.212Z" transform="translate(-766.219 -485.336)" fill="#db2031"/><path d="M774.565,501.613l-1.224-1.115c-4.349-3.945-7.222-6.555-7.222-9.738a4.6,4.6,0,0,1,4.645-4.647,4.988,4.988,0,0,0,7.6,0,4.6,4.6,0,0,1,4.645,4.647c0,3.183-2.87,5.793-7.22,9.738Z" transform="translate(-766.12 -486.114)" fill="#db2031"/><path d="M821.65,537.245l1.225,1.115c4.349,3.945,7.22,6.555,7.22,9.738a4.6,4.6,0,0,1-4.645,4.647,4.988,4.988,0,0,0-7.6,0,4.6,4.6,0,0,1-4.645-4.647c0-3.183,2.87-5.793,7.22-9.738Z" transform="translate(-754.481 -473.48)" fill="#db2031"/></g></g></svg>