<svg xmlns="http://www.w3.org/2000/svg" xmlns:xlink="http://www.w3.org/1999/xlink" width="86" height="128" viewBox="0 0 86 128"><defs><style>.a{fill:#fff;}.b,.c{fill:#db2031;}.b{font-size:17px;font-family:Montserrat-SemiBold, Montserrat;font-weight:600;}.d{filter:url(#a);}</style><filter id="a" x="0" y="0" width="86" height="128" filterUnits="userSpaceOnUse"><feOffset input="SourceAlpha"/><feGaussianBlur stdDeviation="1" result="b"/><feFlood flood-opacity="0.102"/><feComposite operator="in" in2="b"/><feComposite in="SourceGraphic"/></filter></defs><g transform="translate(3.085 3.195)"><g class="d" transform="matrix(1, 0, 0, 1, -3.09, -3.2)"><rect class="a" width="80" height="122" rx="10" transform="translate(3 3)"/></g><text class="b" transform="translate(13.465 16.692)"><tspan x="-5.295" y="0">5</tspan></text><text class="b" transform="translate(65.482 102.905) rotate(180)"><tspan x="-5.295" y="0">5</tspan></text><g transform="translate(9.305 28.077)"><path class="c" d="M798.834,539.2l-3.032-2.76c-10.769-9.764-17.878-16.225-17.878-24.108a11.376,11.376,0,0,1,11.5-11.5,12.576,12.576,0,0,1,9.41,4.35,12.574,12.574,0,0,1,9.409-4.35,11.375,11.375,0,0,1,11.5,11.5c0,7.883-7.109,14.344-17.878,24.108Z" transform="translate(-768.583 -488.467)"/><path class="c" d="M772.859,498.482l-.977-.889c-3.471-3.148-5.763-5.231-5.763-7.771a3.667,3.667,0,0,1,3.706-3.708,3.98,3.98,0,0,0,6.065,0,3.667,3.667,0,0,1,3.706,3.708c0,2.54-2.291,4.623-5.761,7.771Z" transform="translate(-766.12 -486.114)"/><path class="c" d="M819.944,537.245l.978.889c3.471,3.148,5.761,5.231,5.761,7.771a3.667,3.667,0,0,1-3.706,3.708,3.98,3.98,0,0,0-6.065,0,3.667,3.667,0,0,1-3.706-3.708c0-2.54,2.291-4.623,5.761-7.771Z" transform="translate(-766.345 -486.363)"/></g></g></svg>