<svg xmlns="http://www.w3.org/2000/svg" xmlns:xlink="http://www.w3.org/1999/xlink" width="84" height="128" viewBox="0 0 84 128"><defs><style>.a{fill:#fff;}.b,.c{fill:#dc2231;}.b{font-size:17px;font-family:Montserrat-SemiBold, Montserrat;font-weight:600;}.d{filter:url(#a);}</style><filter id="a" x="0" y="0" width="84" height="128" filterUnits="userSpaceOnUse"><feOffset input="SourceAlpha"/><feGaussianBlur stdDeviation="1" result="b"/><feFlood flood-opacity="0.102"/><feComposite operator="in" in2="b"/><feComposite in="SourceGraphic"/></filter></defs><g transform="translate(2.709 3)"><g class="d" transform="matrix(1, 0, 0, 1, -2.71, -3)"><rect class="a" width="78" height="122" rx="10" transform="translate(3 3)"/></g><text class="b" transform="translate(14.927 18.541)"><tspan x="-5.372" y="0">8</tspan></text><text class="b" transform="translate(65.867 104.452) rotate(180)"><tspan x="-5.372" y="0">8</tspan></text><g transform="translate(10.256 32.464)"><path class="c" d="M306.29,373.308l16.29,19.322-16.29,19.321L290,392.629Z" transform="translate(-276.758 -365.85)"/><path class="c" d="M295.962,373.308l5.962,7.071-5.962,7.071L290,380.379Z" transform="translate(-290 -373.308)"/><path class="c" d="M295.962,373.308l5.962,7.071-5.962,7.071L290,380.379Z" transform="translate(-243.448 -329.206)"/></g></g></svg>