<svg xmlns="http://www.w3.org/2000/svg" xmlns:xlink="http://www.w3.org/1999/xlink" width="85.628" height="128.504" viewBox="0 0 85.628 128.504"><defs><style>.a{fill:#fff;}.b,.c{fill:#333;}.c{font-size:19px;font-family:Montserrat-SemiBold, Montserrat;font-weight:600;}.d{filter:url(#a);}</style><filter id="a" x="0" y="0" width="85.628" height="128.504" filterUnits="userSpaceOnUse"><feOffset input="SourceAlpha"/><feGaussianBlur stdDeviation="1" result="b"/><feFlood flood-opacity="0.102"/><feComposite operator="in" in2="b"/><feComposite in="SourceGraphic"/></filter></defs><g transform="translate(3 3)"><g class="d" transform="matrix(1, 0, 0, 1, -3, -3)"><rect class="a" width="79.628" height="122.504" rx="10" transform="translate(3 3)"/></g><path class="b" d="M732.754,486.114a2.808,2.808,0,0,1,2.754,2.69,2.843,2.843,0,0,1-1.448,2.433,4.2,4.2,0,0,1,1.576-.319,2.764,2.764,0,0,1,2.882,2.754,2.712,2.712,0,0,1-2.882,2.689,5.536,5.536,0,0,1-2.242-.64s-.191,1.281,1.28,3.2h-3.841c1.472-1.921,1.281-3.2,1.281-3.2a5.537,5.537,0,0,1-2.242.64,2.712,2.712,0,0,1-2.882-2.689,2.764,2.764,0,0,1,2.882-2.754,4.2,4.2,0,0,1,1.576.319A2.84,2.84,0,0,1,730,488.8,2.807,2.807,0,0,1,732.754,486.114Z" transform="translate(-716.601 -454.818)"/><path class="b" d="M759.072,500.835a8.878,8.878,0,0,1,8.711,8.51,9,9,0,0,1-4.578,7.7,13.252,13.252,0,0,1,4.984-1.013c5.065,0,9.116,3.646,9.116,8.711s-4.051,8.51-9.116,8.51a17.492,17.492,0,0,1-7.09-2.026s-.608,4.051,4.051,10.13H752.995c4.66-6.079,4.051-10.13,4.051-10.13a17.492,17.492,0,0,1-7.09,2.026c-5.065,0-9.118-3.444-9.118-8.51s4.053-8.711,9.118-8.711a13.253,13.253,0,0,1,4.984,1.013,9.008,9.008,0,0,1-4.579-7.7A8.879,8.879,0,0,1,759.072,500.835Z" transform="translate(-719.258 -459.843)"/><text class="c" transform="translate(13.718 20.205)"><tspan x="-7.21" y="0">A</tspan></text><path class="b" d="M777.083,547.362a2.846,2.846,0,0,1,1.448-2.433,4.187,4.187,0,0,1-1.576.32,2.763,2.763,0,0,1-2.881-2.753,2.712,2.712,0,0,1,2.881-2.689,5.542,5.542,0,0,1,2.242.639s.191-1.28-1.282-3.2h3.842c-1.473,1.921-1.28,3.2-1.28,3.2a5.537,5.537,0,0,1,2.242-.639A2.712,2.712,0,0,1,785.6,542.5a2.763,2.763,0,0,1-2.881,2.753,4.188,4.188,0,0,1-1.576-.32,2.842,2.842,0,0,1,1.447,2.433,2.754,2.754,0,0,1-5.507,0Z" transform="translate(-715.95 -456.875)"/><text class="c" transform="translate(65.908 102.445) rotate(180)"><tspan x="-7.21" y="0">A</tspan></text></g></svg>