<svg xmlns="http://www.w3.org/2000/svg" xmlns:xlink="http://www.w3.org/1999/xlink" width="62.239" height="95.48" viewBox="0 0 62.239 95.48"><defs><style>.a,.e{fill:none;}.b{fill:#e84407;}.c{clip-path:url(#a);}.d{fill:#fff;}.e{stroke:#000;stroke-width:3px;}.f{stroke:none;}</style><clipPath id="a"><rect class="a" width="61.915" height="95.254" rx="20"/></clipPath></defs><g transform="translate(-0.021)"><rect class="b" width="62" height="95" rx="10" transform="translate(0.021 0)"/><g transform="translate(0 0)"><rect class="a" width="62" height="95" rx="31" transform="translate(0.021)"/></g><g transform="translate(0.345 0.226)"><g class="c" transform="translate(0 0)"><g transform="translate(-43.742 -54.834)"><path class="d" d="M-44.362-188.535l-.327-.448L-119.215-86.76l-.174.238L-45.016,15.491l.327.448L29.837-86.284l.174-.238Zm-.327.925L29.01-86.522l-73.7,101.088-73.7-101.088Z" transform="translate(119.389 188.983)"/><path class="d" d="M48.577-51.848l.174-.238-68.009-93.284-.327-.448L-87.748-52.325l-.174.238L-19.912,41.2l.327.448Zm-68.163-92.6L47.75-52.087-19.586,40.272-86.921-52.087Z" transform="translate(94.285 154.548)"/><path class="d" d="M67.318-17.414l.174-.238L5.846-102.208l-.327-.448-61.8,84.765-.174.238L5.193,66.9l.327.448Zm-61.8-83.869L66.491-17.653,5.519,65.978-55.452-17.653Z" transform="translate(69.18 120.114)"/><path class="d" d="M86.059,17.019l.174-.238L30.951-59.046l-.327-.448L-24.811,16.543l-.174.238L30.3,92.608l.327.448ZM30.624-58.121l54.608,74.9-54.608,74.9-54.608-74.9Z" transform="translate(44.076 85.68)"/><path class="d" d="M104.8,51.454l.174-.238-48.918-67.1-.327-.448L6.658,50.977l-.174.238,48.918,67.1.327.448ZM55.729-14.958l48.244,66.173L55.729,117.389,7.485,51.215Z" transform="translate(18.971 51.246)"/><path class="d" d="M123.541,85.889l.174-.238L81.16,27.281l-.327-.448L38.125,85.412l-.174.238,42.555,58.37.327.448ZM80.833,28.206,122.713,85.65,80.833,143.1,38.952,85.65Z" transform="translate(-6.133 16.81)"/><path class="d" d="M142.456,120.085,106.265,70.444,105.938,70,69.42,120.085l36.191,49.641.327.448ZM105.938,71.369l35.517,48.716L105.938,168.8,70.421,120.085Z" transform="translate(-31.238 -17.624)"/><path class="d" d="M161.2,154.519l-29.827-40.912-.327-.448-30.154,41.36,29.827,40.912.327.448Zm-30.154-39.987L160.2,154.519l-29.153,39.987-29.153-39.987Z" transform="translate(-56.342 -52.058)"/><path class="d" d="M179.938,188.954,156.474,156.77l-.327-.448-23.79,32.632,23.463,32.184.327.448Zm-23.791-31.259,22.789,31.259-22.789,31.259-22.789-31.259Z" transform="translate(-81.448 -86.493)"/><path class="d" d="M198.679,223.387l-17.427-23.9-17.426,23.9,17.426,23.9Zm-17.427-22.53,16.426,22.53-16.426,22.53-16.425-22.53Z" transform="translate(-106.553 -120.926)"/><path class="d" d="M217.419,257.821l-11.063-15.174-11.063,15.174L206.356,273Zm-11.063-13.8,10.062,13.8-10.062,13.8-10.062-13.8Z" transform="translate(-131.656 -155.36)"/><path class="d" d="M236.161,292.256l-4.7-6.446-4.7,6.446,4.7,6.446Zm-4.7-5.072,3.7,5.072-3.7,5.073-3.7-5.073Z" transform="translate(-156.761 -189.795)"/></g></g></g><g class="e" transform="translate(0.021 0)"><rect class="f" width="62" height="95" rx="10"/><rect class="a" x="1.5" y="1.5" width="59" height="92" rx="8.5"/></g></g></svg>