<svg xmlns="http://www.w3.org/2000/svg" viewBox="0 0 52.02 47.45"><defs><style>.cls-1{fill:#f9f9f9;}.cls-2{fill:#e1e2e1;}.cls-3{fill:#ebeceb;}</style></defs><g id="Camada_2" data-name="Camada 2"><g id="Camada_1-2" data-name="Camada 1"><path class="cls-1" d="M40.36,34.29A5.11,5.11,0,0,1,36.8,39.8c-5.66,2.36-11.31,4.74-17,7.05-3.62,1.48-6.08.17-7.54-3.34C8.39,34.19,4.45,24.89.64,15.54c-1.38-3.39-.61-6.22,3-7.75q8.48-3.58,17-7.08c2.81-1.15,5.5-.83,6.78,2.11C31.8,12.83,36,22.93,40.15,33A3.3,3.3,0,0,1,40.36,34.29Z"/><path class="cls-2" d="M45.37,24.32c0-5.77.08-11.55,0-17.31-.06-2.95,1.24-3,3.32-1.92,2.83,1.54,4.17,3.76,2.86,7-1.67,4.15-3.37,8.27-5.06,12.41Z"/><path class="cls-3" d="M39.43,18.25c-2.07-5-4-10-6.26-15C31.85.35,33.05-.21,35.64.06c3.13.33,4.8,2.05,4.83,5.2.05,4.28,0,8.56,0,12.83Z"/></g></g></svg>