<svg width="106" height="160" viewBox="0 0 106 160" fill="none" xmlns="http://www.w3.org/2000/svg">
<g filter="url(#filter0_d)">
<path d="M92.996 3H12.996C7.47312 3 2.99597 7.47715 2.99597 13V147C2.99597 152.523 7.47312 157 12.996 157H92.996C98.5188 157 102.996 152.523 102.996 147V13C102.996 7.47715 98.5188 3 92.996 3Z" fill="white"/>
</g>
<path d="M24.186 12.884V33.184H20.416V16.045H16.124V12.884H24.186ZM36.6809 33.474C35.0569 33.474 33.6069 33.068 32.3309 32.256C31.0549 31.4246 30.0496 30.226 29.3149 28.66C28.5802 27.0746 28.2129 25.1993 28.2129 23.034C28.2129 20.8686 28.5802 19.003 29.3149 17.437C30.0496 15.8516 31.0549 14.653 32.3309 13.841C33.6069 13.0096 35.0569 12.594 36.6809 12.594C38.3049 12.594 39.7549 13.0096 41.0309 13.841C42.3262 14.653 43.3412 15.8516 44.0759 17.437C44.8106 19.003 45.1779 20.8686 45.1779 23.034C45.1779 25.1993 44.8106 27.0746 44.0759 28.66C43.3412 30.226 42.3262 31.4246 41.0309 32.256C39.7549 33.068 38.3049 33.474 36.6809 33.474ZM36.6809 30.197C38.1309 30.197 39.2716 29.5976 40.1029 28.399C40.9536 27.2003 41.3789 25.412 41.3789 23.034C41.3789 20.656 40.9536 18.8676 40.1029 17.669C39.2716 16.4703 38.1309 15.871 36.6809 15.871C35.2502 15.871 34.1096 16.4703 33.2589 17.669C32.4276 18.8676 32.0119 20.656 32.0119 23.034C32.0119 25.412 32.4276 27.2003 33.2589 28.399C34.1096 29.5976 35.2502 30.197 36.6809 30.197Z" fill="#DC2231"/>
<path d="M84.148 147.249V126.949H87.918V144.088H92.21V147.249H84.148ZM71.6531 126.659C73.2771 126.659 74.7271 127.065 76.0031 127.877C77.2791 128.708 78.2844 129.907 79.0191 131.473C79.7538 133.058 80.1211 134.934 80.1211 137.099C80.1211 139.264 79.7538 141.13 79.0191 142.696C78.2844 144.281 77.2791 145.48 76.0031 146.292C74.7271 147.123 73.2771 147.539 71.6531 147.539C70.0291 147.539 68.5791 147.123 67.3031 146.292C66.0078 145.48 64.9928 144.281 64.2581 142.696C63.5234 141.13 63.1561 139.264 63.1561 137.099C63.1561 134.934 63.5234 133.058 64.2581 131.473C64.9928 129.907 66.0078 128.708 67.3031 127.877C68.5791 127.065 70.0291 126.659 71.6531 126.659ZM71.6531 129.936C70.2031 129.936 69.0624 130.535 68.2311 131.734C67.3804 132.933 66.9551 134.721 66.9551 137.099C66.9551 139.477 67.3804 141.265 68.2311 142.464C69.0624 143.663 70.2031 144.262 71.6531 144.262C73.0838 144.262 74.2244 143.663 75.0751 142.464C75.9064 141.265 76.3221 139.477 76.3221 137.099C76.3221 134.721 75.9064 132.933 75.0751 131.734C74.2244 130.535 73.0838 129.936 71.6531 129.936Z" fill="#DC2231"/>
<path d="M53.404 53.0291L73.818 77.242L53.404 101.455L32.99 77.242L53.404 53.0291Z" fill="#DC2231"/>
<path d="M23.866 43.683L31.337 52.544L23.866 61.405L16.395 52.544L23.866 43.683Z" fill="#DC2231"/>
<path d="M82.204 98.951L89.675 107.812L82.204 116.673L74.733 107.812L82.204 98.951Z" fill="#DC2231"/>
<defs>
<filter id="filter0_d" x="0.995972" y="1" width="104" height="158" filterUnits="userSpaceOnUse" color-interpolation-filters="sRGB">
<feFlood flood-opacity="0" result="BackgroundImageFix"/>
<feColorMatrix in="SourceAlpha" type="matrix" values="0 0 0 0 0 0 0 0 0 0 0 0 0 0 0 0 0 0 127 0" result="hardAlpha"/>
<feOffset/>
<feGaussianBlur stdDeviation="1"/>
<feColorMatrix type="matrix" values="0 0 0 0 0 0 0 0 0 0 0 0 0 0 0 0 0 0 0.102 0"/>
<feBlend mode="normal" in2="BackgroundImageFix" result="effect1_dropShadow"/>
<feBlend mode="normal" in="SourceGraphic" in2="effect1_dropShadow" result="shape"/>
</filter>
</defs>
</svg>
