<svg xmlns="http://www.w3.org/2000/svg" xmlns:xlink="http://www.w3.org/1999/xlink" width="106" height="160" viewBox="0 0 106 160"><defs><filter id="a" x="0" y="0" width="106" height="160" filterUnits="userSpaceOnUse"><feOffset input="SourceAlpha"/><feGaussianBlur stdDeviation="1" result="b"/><feFlood flood-opacity="0.102"/><feComposite operator="in" in2="b"/><feComposite in="SourceGraphic"/></filter></defs><g transform="translate(3.126 3)"><g transform="matrix(1, 0, 0, 1, -3.13, -3)" filter="url(#a)"><rect width="100" height="154" rx="10" transform="translate(3 3)" fill="#fff"/></g><text transform="translate(21.857 31.184)" fill="#dc2231" font-size="29" font-family="Montserrat-SemiBold, Montserrat" font-weight="600"><tspan x="-9.091" y="0">9</tspan></text><text transform="translate(80.225 122.949) rotate(180)" fill="#dc2231" font-size="29" font-family="Montserrat-SemiBold, Montserrat" font-weight="600"><tspan x="-9.091" y="0">9</tspan></text><g transform="translate(13.269 40.683)"><path d="M310.414,373.308l20.414,24.213-20.414,24.213L290,397.521Z" transform="translate(-273.405 -363.962)" fill="#dc2231"/><path d="M297.471,373.308l7.471,8.861-7.471,8.861L290,382.169Z" transform="translate(-290 -373.308)" fill="#dc2231"/><path d="M297.471,373.308l7.471,8.861-7.471,8.861L290,382.169Z" transform="translate(-231.662 -318.04)" fill="#dc2231"/></g></g></svg>