<svg xmlns="http://www.w3.org/2000/svg" viewBox="0 0 70.5 70.5"><defs><style>.cls-1{fill:#e86f07;}.cls-2{fill:none;stroke:#fff;stroke-miterlimit:10;stroke-width:3px;}.cls-3{fill:#fff;}</style></defs><g id="Camada_2" data-name="Camada 2"><g id="Camada_1-2" data-name="Camada 1"><circle class="cls-1" cx="35.25" cy="35.25" r="35.25"/><circle class="cls-2" cx="35.48" cy="35.13" r="27.71"/><path class="cls-3" d="M23.88,22.61H35.79a16.67,16.67,0,0,1,7.34,1.54,11.65,11.65,0,0,1,5,4.4,12.31,12.31,0,0,1,1.77,6.66,12.36,12.36,0,0,1-1.77,6.66,11.63,11.63,0,0,1-5,4.39,16.67,16.67,0,0,1-7.34,1.55H23.88ZM35.5,42.12a7.31,7.31,0,0,0,5.21-1.84,6.62,6.62,0,0,0,2-5.07,6.64,6.64,0,0,0-2-5.08,7.35,7.35,0,0,0-5.21-1.84H31V42.12Z"/></g></g></svg>