<svg xmlns="http://www.w3.org/2000/svg" width="46" height="46" viewBox="0 0 46 46">
  <g id="Grupo_1965" data-name="Grupo 1965" transform="translate(-907 -986)">
    <circle id="Elipse_483" data-name="Elipse 483" cx="23" cy="23" r="23" transform="translate(907 986)" fill="#e6e6e6"/>
    <path id="Elipse_483_-_Contorno" data-name="Elipse 483 - Contorno" d="M23,1a22.006,22.006,0,0,0-8.563,42.272A22.006,22.006,0,0,0,31.563,2.728,21.861,21.861,0,0,0,23,1m0-1A23,23,0,1,1,0,23,23,23,0,0,1,23,0Z" transform="translate(907 986)" fill="#56915d"/>
    <path id="Caminho_816" data-name="Caminho 816" d="M921.556,1015.089l8.5-6-8.5-6Zm9-12v12l8.5-6Z" fill="#56915d"/>
    <path id="Caminho_816_-_Contorno" data-name="Caminho 816 - Contorno" d="M930.056,1016.054V1009.7l-9,6.353v-13.93l9,6.353v-6.353l9.867,6.965Zm1-12v10.07l7.133-5.035Zm-9,0v10.07l7.133-5.035Z" fill="#56915d"/>
  </g>
</svg>
