<svg xmlns="http://www.w3.org/2000/svg" width="17.248" height="19.275" viewBox="0 0 17.248 19.275">
  <path id="Caminho_1482" data-name="Caminho 1482" d="M178.594,270.676q0-3.95,0-7.9c0-.134,0-.268,0-.4a1.261,1.261,0,0,1,1.78-1.24,7.544,7.544,0,0,1,1.168.595q6.662,3.836,13.318,7.682c1.3.754,1.3,1.764,0,2.514q-6.957,4.019-13.921,8.027a3.052,3.052,0,0,1-.629.284,1.26,1.26,0,0,1-1.716-1.258c-.012-1.841-.005-3.682-.006-5.522q0-1.39,0-2.779Z" transform="translate(-178.591 -261.033)" fill="#56915d"/>
</svg>
